<svg width="48" height="48" viewBox="0 0 48 48" fill="none" xmlns="http://www.w3.org/2000/svg">
<path d="M26.0191 5.84014L37.8191 11.0801C41.2191 12.5801 41.2191 15.0601 37.8191 16.5601L26.0191 21.8001C24.6791 22.4001 22.4791 22.4001 21.1391 21.8001L9.33906 16.5601C5.93906 15.0601 5.93906 12.5801 9.33906 11.0801L21.1391 5.84014C22.4791 5.24014 24.6791 5.24014 26.0191 5.84014Z" stroke="#009AA6" stroke-width="1.5" stroke-linecap="round" stroke-linejoin="round"/>
<path d="M6 22C6 23.68 7.26 25.62 8.8 26.3L22.38 32.34C23.42 32.8 24.6 32.8 25.62 32.34L39.2 26.3C40.74 25.62 42 23.68 42 22" stroke="#009AA6" stroke-width="1.5" stroke-linecap="round" stroke-linejoin="round"/>
<path d="M6 32C6 33.86 7.1 35.54 8.8 36.3L22.38 42.34C23.42 42.8 24.6 42.8 25.62 42.34L39.2 36.3C40.9 35.54 42 33.86 42 32" stroke="#009AA6" stroke-width="1.5" stroke-linecap="round" stroke-linejoin="round"/>
</svg>
