<svg width="48" height="48" viewBox="0 0 48 48" fill="none" xmlns="http://www.w3.org/2000/svg">
<path d="M17.9991 26C16.6791 26.66 15.5791 27.64 14.7591 28.86C14.2991 29.56 14.2991 30.44 14.7591 31.14C15.5791 32.36 16.6791 33.34 17.9991 34" stroke="#009AA6" stroke-width="1.5" stroke-linecap="round" stroke-linejoin="round"/>
<path d="M30.4199 26C31.7399 26.66 32.8399 27.64 33.6599 28.86C34.1199 29.56 34.1199 30.44 33.6599 31.14C32.8399 32.36 31.7399 33.34 30.4199 34" stroke="#009AA6" stroke-width="1.5" stroke-linecap="round" stroke-linejoin="round"/>
<path d="M18 44H30C40 44 44 40 44 30V18C44 8 40 4 30 4H18C8 4 4 8 4 18V30C4 40 8 44 18 44Z" stroke="#009AA6" stroke-width="1.5" stroke-linecap="round" stroke-linejoin="round"/>
<path d="M4.46094 16.02L42.9009 16" stroke="#009AA6" stroke-width="1.5" stroke-linecap="round" stroke-linejoin="round"/>
</svg>
