<svg width="33" height="33" viewBox="0 0 34 42" fill="none" xmlns="http://www.w3.org/2000/svg">
<path d="M33 11V31C33 39 31 41 23 41H11C3 41 1 39 1 31V11C1 3 3 1 11 1H23C31 1 33 3 33 11Z" stroke="#009AA6" stroke-width="1.5" stroke-linecap="round" stroke-linejoin="round"/>
<path d="M21 7.99988H13" stroke="#009AA6" stroke-width="1.5" stroke-linecap="round" stroke-linejoin="round"/>
<path d="M17.0004 35.2C18.7125 35.2 20.1004 33.8121 20.1004 32.1C20.1004 30.3879 18.7125 29 17.0004 29C15.2883 29 13.9004 30.3879 13.9004 32.1C13.9004 33.8121 15.2883 35.2 17.0004 35.2Z" stroke="#009AA6" stroke-width="1.5" stroke-linecap="round" stroke-linejoin="round"/>
</svg>
