<svg width="48" height="48" viewBox="0 0 48 48" fill="none" xmlns="http://www.w3.org/2000/svg">
<path d="M36.0002 14.32C35.8802 14.3 35.7402 14.3 35.6202 14.32C32.8602 14.22 30.6602 11.96 30.6602 9.16C30.6602 6.3 32.9602 4 35.8202 4C38.6802 4 40.9801 6.32 40.9801 9.16C40.9601 11.96 38.7602 14.22 36.0002 14.32Z" stroke="#009AA6" stroke-width="1.5" stroke-linecap="round" stroke-linejoin="round"/>
<path d="M33.9409 28.8798C36.6809 29.3398 39.7009 28.8598 41.8209 27.4398C44.6409 25.5598 44.6409 22.4798 41.8209 20.5998C39.6809 19.1798 36.6209 18.6998 33.8809 19.1798" stroke="#009AA6" stroke-width="1.5" stroke-linecap="round" stroke-linejoin="round"/>
<path d="M11.9409 14.32C12.0609 14.3 12.2009 14.3 12.3209 14.32C15.0809 14.22 17.2809 11.96 17.2809 9.16C17.2809 6.3 14.9809 4 12.1209 4C9.26094 4 6.96094 6.32 6.96094 9.16C6.98094 11.96 9.18094 14.22 11.9409 14.32Z" stroke="#009AA6" stroke-width="1.5" stroke-linecap="round" stroke-linejoin="round"/>
<path d="M14.0009 28.8798C11.2609 29.3398 8.24086 28.8598 6.12086 27.4398C3.30086 25.5598 3.30086 22.4798 6.12086 20.5998C8.26086 19.1798 11.3209 18.6998 14.0609 19.1798" stroke="#009AA6" stroke-width="1.5" stroke-linecap="round" stroke-linejoin="round"/>
<path d="M24.0002 29.2599C23.8802 29.2399 23.7402 29.2399 23.6202 29.2599C20.8602 29.1599 18.6602 26.8999 18.6602 24.0999C18.6602 21.2399 20.9602 18.9399 23.8202 18.9399C26.6802 18.9399 28.9802 21.2599 28.9802 24.0999C28.9602 26.8999 26.7602 29.1799 24.0002 29.2599Z" stroke="#009AA6" stroke-width="1.5" stroke-linecap="round" stroke-linejoin="round"/>
<path d="M18.1795 35.5597C15.3595 37.4397 15.3595 40.5197 18.1795 42.3997C21.3795 44.5397 26.6195 44.5397 29.8195 42.3997C32.6395 40.5197 32.6395 37.4397 29.8195 35.5597C26.6395 33.4397 21.3795 33.4397 18.1795 35.5597Z" stroke="#009AA6" stroke-width="1.5" stroke-linecap="round" stroke-linejoin="round"/>
</svg>
